<svg width="24" height="24" viewBox="0 0 24 24" fill="none" xmlns="http://www.w3.org/2000/svg">
<path d="M13.0305 2.44608L2.04 0.827308C1.53 0.750223 1.0095 0.885485 0.6195 1.20546C0.2295 1.53561 0 2.00975 0 2.50425V22.9345C0 23.4683 0.45 23.9046 1.0005 23.9046H4.251V18.8141C4.251 17.8731 5.031 17.1168 6.0015 17.1168H8.502C9.4725 17.1168 10.2525 17.8731 10.2525 18.8141V23.9046H14.502V4.12448C14.5005 3.28964 13.8795 2.58279 13.0305 2.44608ZM5.5005 14.9352H4.0005C3.5865 14.9352 3.2505 14.6094 3.2505 14.208C3.2505 13.8066 3.5865 13.4808 4.0005 13.4808H5.5005C5.9145 13.4808 6.2505 13.8066 6.2505 14.208C6.2505 14.6094 5.9145 14.9352 5.5005 14.9352ZM5.5005 12.0264H4.0005C3.5865 12.0264 3.2505 11.7006 3.2505 11.2991C3.2505 10.8977 3.5865 10.5719 4.0005 10.5719H5.5005C5.9145 10.5719 6.2505 10.8977 6.2505 11.2991C6.2505 11.7006 5.9145 12.0264 5.5005 12.0264ZM5.5005 9.11751H4.0005C3.5865 9.11751 3.2505 8.79172 3.2505 8.3903C3.2505 7.98888 3.5865 7.66309 4.0005 7.66309H5.5005C5.9145 7.66309 6.2505 7.98888 6.2505 8.3903C6.2505 8.79172 5.9145 9.11751 5.5005 9.11751ZM5.5005 6.20867H4.0005C3.5865 6.20867 3.2505 5.88288 3.2505 5.48145C3.2505 5.08003 3.5865 4.75424 4.0005 4.75424H5.5005C5.9145 4.75424 6.2505 5.08003 6.2505 5.48145C6.2505 5.88288 5.9145 6.20867 5.5005 6.20867ZM10.5 14.9352H9C8.586 14.9352 8.25 14.6094 8.25 14.208C8.25 13.8066 8.586 13.4808 9 13.4808H10.5C10.914 13.4808 11.25 13.8066 11.25 14.208C11.25 14.6094 10.914 14.9352 10.5 14.9352ZM10.5 12.0264H9C8.586 12.0264 8.25 11.7006 8.25 11.2991C8.25 10.8977 8.586 10.5719 9 10.5719H10.5C10.914 10.5719 11.25 10.8977 11.25 11.2991C11.25 11.7006 10.914 12.0264 10.5 12.0264ZM10.5 9.11751H9C8.586 9.11751 8.25 8.79172 8.25 8.3903C8.25 7.98888 8.586 7.66309 9 7.66309H10.5C10.914 7.66309 11.25 7.98888 11.25 8.3903C11.25 8.79172 10.914 9.11751 10.5 9.11751ZM10.5 6.20867H9C8.586 6.20867 8.25 5.88288 8.25 5.48145C8.25 5.08003 8.586 4.75424 9 4.75424H10.5C10.914 4.75424 11.25 5.08003 11.25 5.48145C11.25 5.88288 10.914 6.20867 10.5 6.20867Z" fill="#232536"/>
<path d="M22.6205 11.1469L15.5 9.70117V23.9051H22.25C23.2145 23.9051 24.0005 23.1444 24.0005 22.2077V12.8049C24.0005 12.0035 23.4365 11.3214 22.6205 11.1469ZM20.2505 20.9962H18.7505C18.3365 20.9962 18.0005 20.6704 18.0005 20.269C18.0005 19.8676 18.3365 19.5418 18.7505 19.5418H20.2505C20.6645 19.5418 21.0005 19.8676 21.0005 20.269C21.0005 20.6704 20.6645 20.9962 20.2505 20.9962ZM20.2505 18.0874H18.7505C18.3365 18.0874 18.0005 17.7616 18.0005 17.3602C18.0005 16.9587 18.3365 16.6329 18.7505 16.6329H20.2505C20.6645 16.6329 21.0005 16.9587 21.0005 17.3602C21.0005 17.7616 20.6645 18.0874 20.2505 18.0874ZM20.2505 15.1785H18.7505C18.3365 15.1785 18.0005 14.8527 18.0005 14.4513C18.0005 14.0499 18.3365 13.7241 18.7505 13.7241H20.2505C20.6645 13.7241 21.0005 14.0499 21.0005 14.4513C21.0005 14.8527 20.6645 15.1785 20.2505 15.1785Z" fill="#FFD050"/>
</svg>
